<?xml version="1.0" encoding="UTF-8" standalone="no"?>
<svg
   inkscape:export-ydpi="576"
   inkscape:export-xdpi="576"
   inkscape:export-filename="/media/taufikramadhan/Data/Tr Design Studio/Project Design/TR Creative Design/Icon Design/Project Hiring/Icon Icons/008 - Weather And Season/Send/1 - Line/24 - Bon Fire.png"
   width="64pt"
   height="64pt"
   viewBox="0 0 22.577778 22.577778"
   version="1.1"
   id="svg831"
   inkscape:version="1.1.1 (1:1.1+202109281943+c3084ef5ed)"
   sodipodi:docname="24 - Bon Fire.svg"
   xmlns:inkscape="http://www.inkscape.org/namespaces/inkscape"
   xmlns:sodipodi="http://sodipodi.sourceforge.net/DTD/sodipodi-0.dtd"
   xmlns="http://www.w3.org/2000/svg"
   xmlns:svg="http://www.w3.org/2000/svg"
   xmlns:rdf="http://www.w3.org/1999/02/22-rdf-syntax-ns#"
   xmlns:cc="http://creativecommons.org/ns#"
   xmlns:dc="http://purl.org/dc/elements/1.1/">
  <defs
     id="defs825">
    <pattern
       id="EMFhbasepattern"
       patternUnits="userSpaceOnUse"
       width="6"
       height="6"
       x="0"
       y="0" />
    <pattern
       id="EMFhbasepattern-9"
       patternUnits="userSpaceOnUse"
       width="6"
       height="6"
       x="0"
       y="0" />
    <pattern
       id="EMFhbasepattern-0"
       patternUnits="userSpaceOnUse"
       width="6"
       height="6"
       x="0"
       y="0" />
    <pattern
       id="EMFhbasepattern-7"
       patternUnits="userSpaceOnUse"
       width="6"
       height="6"
       x="0"
       y="0" />
    <pattern
       id="EMFhbasepattern-2"
       patternUnits="userSpaceOnUse"
       width="6"
       height="6"
       x="0"
       y="0" />
    <pattern
       id="EMFhbasepattern-98"
       patternUnits="userSpaceOnUse"
       width="6"
       height="6"
       x="0"
       y="0" />
    <pattern
       id="EMFhbasepattern-6"
       patternUnits="userSpaceOnUse"
       width="6"
       height="6"
       x="0"
       y="0" />
    <pattern
       id="EMFhbasepattern-01"
       patternUnits="userSpaceOnUse"
       width="6"
       height="6"
       x="0"
       y="0" />
    <pattern
       id="EMFhbasepattern-07"
       patternUnits="userSpaceOnUse"
       width="6"
       height="6"
       x="0"
       y="0" />
    <pattern
       id="EMFhbasepattern-8"
       patternUnits="userSpaceOnUse"
       width="6"
       height="6"
       x="0"
       y="0" />
    <pattern
       id="EMFhbasepattern-4"
       patternUnits="userSpaceOnUse"
       width="6"
       height="6"
       x="0"
       y="0" />
    <pattern
       id="EMFhbasepattern-40"
       patternUnits="userSpaceOnUse"
       width="6"
       height="6"
       x="0"
       y="0" />
    <pattern
       id="EMFhbasepattern-08"
       patternUnits="userSpaceOnUse"
       width="6"
       height="6"
       x="0"
       y="0" />
    <pattern
       id="EMFhbasepattern-04"
       patternUnits="userSpaceOnUse"
       width="6"
       height="6"
       x="0"
       y="0" />
    <pattern
       id="EMFhbasepattern-014"
       patternUnits="userSpaceOnUse"
       width="6"
       height="6"
       x="0"
       y="0" />
    <pattern
       id="EMFhbasepattern-27"
       patternUnits="userSpaceOnUse"
       width="6"
       height="6"
       x="0"
       y="0" />
    <pattern
       id="EMFhbasepattern-09"
       patternUnits="userSpaceOnUse"
       width="6"
       height="6"
       x="0"
       y="0" />
    <pattern
       id="EMFhbasepattern-5"
       patternUnits="userSpaceOnUse"
       width="6"
       height="6"
       x="0"
       y="0" />
    <pattern
       id="EMFhbasepattern-018"
       patternUnits="userSpaceOnUse"
       width="6"
       height="6"
       x="0"
       y="0" />
  </defs>
  <sodipodi:namedview
     id="base"
     pagecolor="#ffffff"
     bordercolor="#666666"
     borderopacity="1.0"
     inkscape:pageopacity="0.0"
     inkscape:pageshadow="2"
     inkscape:zoom="6.28125"
     inkscape:cx="42.666667"
     inkscape:cy="42.666667"
     inkscape:document-units="pt"
     inkscape:current-layer="layer1"
     showgrid="false"
     units="pt"
     inkscape:window-width="1366"
     inkscape:window-height="705"
     inkscape:window-x="0"
     inkscape:window-y="31"
     inkscape:window-maximized="1"
     inkscape:pagecheckerboard="true"
     inkscape:showpageshadow="false"
     inkscape:object-paths="true"
     inkscape:snap-intersection-paths="true"
     inkscape:snap-smooth-nodes="true"
     inkscape:snap-midpoints="true"
     showguides="false"
     inkscape:snap-bbox="true"
     inkscape:bbox-nodes="true"
     inkscape:snap-nodes="false"
     inkscape:snap-global="true"
     inkscape:document-rotation="0">
    <inkscape:grid
       type="xygrid"
       id="grid1378" />
    <sodipodi:guide
       position="0.97013831,21.607643"
       orientation="78.000048,0"
       id="guide1380"
       inkscape:locked="false" />
    <sodipodi:guide
       position="0.97013831,0.97013129"
       orientation="0,78.000005"
       id="guide1382"
       inkscape:locked="false" />
    <sodipodi:guide
       position="21.607639,0.97013129"
       orientation="-78.000048,0"
       id="guide1384"
       inkscape:locked="false" />
    <sodipodi:guide
       position="21.607639,21.607643"
       orientation="0,-78.000005"
       id="guide1386"
       inkscape:locked="false" />
  </sodipodi:namedview>
  <metadata
     id="metadata828">
    <rdf:RDF>
      <cc:Work
         rdf:about="">
        <dc:format>image/svg+xml</dc:format>
        <dc:type
           rdf:resource="http://purl.org/dc/dcmitype/StillImage" />
      </cc:Work>
    </rdf:RDF>
  </metadata>
  <g
     inkscape:label="Icon"
     inkscape:groupmode="layer"
     id="layer1"
     transform="translate(0,-274.42223)">
    <path
       id="path46567"
       style="color:#000000;fill:#000000;stroke-width:1;stroke-linecap:round;stroke-linejoin:round;-inkscape-stroke:none"
       d="m 10.610848,275.39246 c -0.210169,0.009 -0.376742,0.23085 -0.280885,0.45156 0,0 0.112401,0.26169 0.10454,0.60458 -0.0079,0.34291 -0.11167,0.72937 -0.6335595,1.06433 -0.6502973,0.41719 -1.486964,1.15729 -2.1777872,2.13496 -0.6908231,0.97767 -1.2331136,2.1966 -1.2331136,3.55135 1.032e-4,2.68227 2.422687,4.82728 5.3607043,4.82728 2.937988,0 5.360003,-2.14501 5.360076,-4.82728 0,-0.15323 -0.0057,-0.30106 -0.01638,-0.44778 -0.02073,-0.29296 -0.39044,-0.40771 -0.573733,-0.17823 -0.224789,0.27925 -0.6042,0.47034 -1.042288,0.47108 -0.369633,-1.4e-4 -0.714539,-0.12813 -0.914445,-0.3237 -0.199915,-0.19558 -0.295711,-0.43668 -0.178227,-0.84265 0.475442,-1.6419 0.375337,-2.92471 -0.278362,-3.95378 -0.95745,-1.29952 -2.239943,-1.97121 -3.346664,-2.50149 -0.05043,-0.0233 -0.101384,-0.0323 -0.149887,-0.0302 z m 0.464148,1.0467 c 1.067195,0.57441 2.047641,1.13848 2.487009,1.83015 0.543274,0.85523 0.649605,1.89393 0.204681,3.43041 -0.171401,0.59233 -0.0073,1.13791 0.345119,1.48251 0.35223,0.34462 0.852763,0.50678 1.364109,0.50698 0.397733,0 0.67108,-0.25961 0.980568,-0.45219 -0.02451,2.27412 -2.094866,4.1446 -4.705731,4.1446 -2.6264032,0 -4.7150888,-1.88994 -4.7151758,-4.18238 0,-1.18131 0.4792679,-2.27933 1.1159713,-3.1804 0.6367034,-0.90107 1.4320036,-1.59955 1.9995575,-1.96366 0.53906,-0.36667 0.975467,-0.99143 0.923892,-1.61602 z m 6.010639,2.75656 c -0.527613,0.0135 -0.957898,0.45246 -0.957898,0.98309 0,0.53904 0.444046,0.98309 0.983089,0.98309 0.539057,0 0.983091,-0.44405 0.983091,-0.98309 0,-0.53905 -0.444034,-0.98309 -0.983091,-0.98309 -0.0084,0 -0.01679,-2.2e-4 -0.02518,0 z m 0.02518,0.64488 c 0.19052,0 0.338194,0.14769 0.338194,0.33821 0,0.19052 -0.147674,0.33755 -0.338194,0.33755 -0.190518,0 -0.337565,-0.14703 -0.337565,-0.33755 0,-0.19052 0.147047,-0.33821 0.337565,-0.33821 z m -8.4875733,0.83321 c -0.094774,0.006 -0.1818738,0.0543 -0.2380572,0.131 -1.3706218,1.85401 -0.2645077,4.10366 -0.2645077,4.10366 0.078461,0.15942 0.2711049,0.22531 0.4307718,0.14736 0.1603728,-0.0775 0.2274906,-0.27043 0.1498869,-0.43077 0,0 -0.9171755,-1.92239 0.202791,-3.43735 0.1063367,-0.14384 0.075246,-0.34676 -0.069278,-0.45218 -0.061095,-0.0448 -0.1360119,-0.0667 -0.2116067,-0.0617 z m 3.1274973,1.7615 c -0.09401,-3.2e-4 -0.183473,0.0403 -0.244982,0.11151 0,0 -0.453476,0.5311 -0.909408,1.18777 -0.227965,0.32833 -0.457886,0.6902 -0.63545,1.04292 -0.177565,0.35271 -0.3142608,0.68886 -0.3142608,1.03033 0,0.14357 0.014637,0.28292 0.042825,0.41879 0.03505,0.17611 0.2072185,0.28967 0.3829078,0.25255 0.175092,-0.0362 0.287263,-0.20803 0.250027,-0.38291 -0.01928,-0.093 -0.03086,-0.18889 -0.03086,-0.28843 0,-0.14464 0.08877,-0.43222 0.244987,-0.74252 0.156216,-0.31032 0.371138,-0.65155 0.588217,-0.9642 0.311952,-0.4493 0.474579,-0.63006 0.626001,-0.81368 0.151474,0.18369 0.311668,0.36456 0.623485,0.81368 0.217085,0.31265 0.43389,0.65388 0.590103,0.9642 0.156214,0.3103 0.243097,0.59788 0.243097,0.74252 0,0.0994 -0.0096,0.19549 -0.02835,0.28843 -0.03723,0.17488 0.07494,0.34667 0.250023,0.38291 0.174019,0.0357 0.344107,-0.0762 0.380389,-0.25003 0.02827,-0.13599 0.04283,-0.27781 0.04283,-0.42131 0,-0.34147 -0.13419,-0.67762 -0.311743,-1.03033 -0.177562,-0.35272 -0.407478,-0.71459 -0.635448,-1.04292 -0.455929,-0.65667 -0.909404,-1.18777 -0.909404,-1.18777 -0.06151,-0.0711 -0.15098,-0.11176 -0.244986,-0.11151 z m -6.8016453,2.06127 c -0.5276191,0.0135 -0.9578975,0.45246 -0.9578975,0.9831 0,0.53904 0.4440405,0.98309 0.9830904,0.98309 0.5390499,0 0.9830904,-0.44405 0.9830904,-0.98309 0,-0.53906 -0.4440405,-0.9831 -0.9830904,-0.9831 -0.00842,0 -0.0168,-2e-4 -0.025183,0 z m 0.025183,0.64491 c 0.1905219,0 0.3375648,0.14767 0.3375616,0.33819 0,0.19052 -0.1470397,0.33756 -0.3375616,0.33756 -0.1905218,0 -0.3381935,-0.14704 -0.3381935,-0.33756 0,-0.19052 0.1476717,-0.33819 0.3381935,-0.33819 z m 0.097614,3.15771 c -0.016058,-10e-6 -0.03189,4e-5 -0.047864,6.5e-4 -0.555024,0.0211 -1.0550448,0.40059 -1.2041417,0.96168 -0.1740222,0.65425 -0.3499532,1.30941 -0.5239786,1.96366 -0.1834667,0.69045 0.2327303,1.40599 0.92326,1.59272 l 0.2600999,0.0706 c 0.00648,0.0715 0.018767,0.14372 0.037788,0.21538 l 0.5214603,1.96366 c 0.1836504,0.6902 0.901914,1.10261 1.5920889,0.91633 l 0.013221,-0.004 c 0.00258,-3.3e-4 0.00548,-9.8e-4 0.00819,-10e-4 0.015252,-0.004 0.030342,-0.009 0.045345,-0.0133 l 4.5892205,-1.23815 4.630156,1.24823 c 0.0038,9.7e-4 0.0076,0.002 0.01133,0.004 3.23e-4,1.1e-4 9.68e-4,6.3e-4 0.0013,6.3e-4 l 0.01763,0.005 c 0.69018,0.18626 1.409062,-0.22612 1.592722,-0.91633 l 0.523347,-1.96366 c 0.01873,-0.0706 0.03082,-0.14289 0.03716,-0.21539 l 0.26073,-0.0706 c 0.690517,-0.18641 1.104217,-0.90208 0.92074,-1.59271 l -0.520828,-1.96366 c -0.18366,-0.6902 -0.902555,-1.10258 -1.59272,-0.91633 l -5.873976,1.58579 -5.8821642,-1.58579 c -0.1131626,-0.0306 -0.2276066,-0.0458 -0.3400831,-0.0459 z m 12.4602383,0.64428 c 0.280253,0.01 0.528703,0.19975 0.60459,0.48493 l 0.523979,1.96114 c 0.09408,0.35396 -0.112754,0.71114 -0.469188,0.80738 l -10.6193834,2.86614 c 0.053182,-0.194 0.06203,-0.40303 0.016994,-0.61026 l 3.1999234,-0.86344 c 0.172558,-0.0469 0.273974,-0.22572 0.226091,-0.39801 -0.04692,-0.17135 -0.22336,-0.27244 -0.394874,-0.2261 l -1.069368,0.28908 c -0.056718,-0.37913 0.1871111,-0.75101 0.597662,-0.83384 l 2.708692,-0.73306 c 0.172327,-0.0458 0.2748,-0.22326 0.228613,-0.3955 -0.04692,-0.17137 -0.223353,-0.27244 -0.394873,-0.2261 l -2.670906,0.72111 c -0.7670694,0.15474 -1.2335418,0.91145 -1.0933025,1.63553 l -1.5064371,0.40684 -0.3829075,-1.39937 c -0.063045,-0.2319 -0.1858558,-0.43271 -0.3476378,-0.59011 l 10.6452049,-2.87305 c 0.0663,-0.0179 0.132449,-0.0256 0.197123,-0.0233 z m -12.4356774,10e-4 c 0.048413,10e-4 0.096944,0.009 0.1467398,0.0221 l 4.8115376,1.29861 -1.876754,0.50697 -2.6324882,-0.70598 c -0.1722358,-0.0462 -0.3496372,0.0563 -0.3955022,0.22862 -0.046188,0.17224 0.056287,0.34901 0.2286095,0.39487 l 1.5599699,0.4169 -1.4333832,0.3867 c -0.021637,0.005 -0.043253,0.01 -0.064867,0.0151 -0.011992,0.004 -0.023765,0.007 -0.035266,0.0126 -0.3787125,0.11371 -0.6709571,0.38825 -0.8206087,0.72803 l -0.1958616,-0.0523 c -0.3563958,-0.0964 -0.5631561,-0.45374 -0.4691882,-0.80738 0.1740221,-0.65424 0.3474317,-1.30689 0.5214603,-1.96114 0.075914,-0.28567 0.3283492,-0.47246 0.6071092,-0.48304 0.016122,-6.5e-4 0.032358,-10e-4 0.048493,-6.5e-4 z m 11.1339184,1.184 c -0.02809,1.4e-4 -0.05604,0.004 -0.08313,0.011 l -1.79488,0.48053 c -0.172551,0.0458 -0.275035,0.22312 -0.228609,0.3955 0.04582,0.17224 0.222689,0.27464 0.394873,0.22862 l 1.794877,-0.48368 c 0.17224,-0.0458 0.274636,-0.22268 0.228613,-0.39487 -0.03839,-0.14044 -0.166142,-0.23775 -0.311743,-0.23743 z m -10.4594207,1.98066 c 0.2962107,-0.004 0.5644072,0.19102 0.6455255,0.48934 l 0.5334264,1.95925 c 0.095338,0.35041 -0.1078296,0.70352 -0.4622588,0.79731 -0.00258,9.6e-4 -0.00503,0.001 -0.00754,0.002 l -0.015736,0.005 c -0.3536099,0.0954 -0.7089383,-0.11065 -0.802342,-0.46163 l -0.5214603,-1.96114 c -0.094035,-0.35394 0.1101841,-0.71112 0.4666698,-0.80739 l 0.013221,-0.004 c 0.050512,-0.0122 0.100855,-0.0184 0.1505189,-0.0189 z m 11.6320747,0.96672 -0.484933,1.82447 c -0.09335,0.35104 -0.448107,0.55707 -0.801714,0.46163 l -0.0082,-0.002 c -0.0052,-10e-4 -0.01036,-0.002 -0.01573,-0.005 -0.354435,-0.0938 -0.559489,-0.44688 -0.464151,-0.7973 l 0.295998,-1.0826 z m -2.201088,0.59451 -0.195233,0.71795 c -0.06214,0.22838 -0.05745,0.4603 0.0013,0.6745 l -2.481982,-0.67012 z"
       sodipodi:nodetypes="scccscsscccscccsscsccccscsccsssssssssssscccccsccccssscccssscssscccsssccssssssssssssccccccccccccccscccccccccccccscccccccccccccccccccssscccccccccccccccsssccccccssccccccccccccccccccccccccc" />
  </g>
</svg>
